# xmcd
#
# Track frame offsets:
#	150
#	12218
#	26823
#	40995
#	58755
#	71925
#	85858
#	101748
#	117315
#	130053
#
# Disc length: 1948 seconds
#
# Revision: 0
# Processed by: cddbd v1.5.1PL0 Copyright (c) Steve Scherf et al.
# Submitted via: dBpowerAMP V4.0
#
DISCID=8a079a0a
DTITLE=George Strait - Easy Come Easy Go
DYEAR=1993
DGENRE=Country
TTITLE0=Stay Out Of My Arms
TTITLE1=Just Look At Me
TTITLE2=Easy Come, Easy Go
TTITLE3=I'd Like To Have That One Back
TTITLE4=Lovebug
TTITLE5=I Wasn't Fooling Around
TTITLE6=Without Me Around
TTITLE7=The Man In Love With You
TTITLE8=That's Where My Baby Feels At Home
TTITLE9=We Must Be Loving Right
EXTD=
EXTT0=
EXTT1=
EXTT2=
EXTT3=
EXTT4=
EXTT5=
EXTT6=
EXTT7=
EXTT8=
EXTT9=
PLAYORDER=
